<svg version="1.2" xmlns="http://www.w3.org/2000/svg" viewBox="0 0 405 102" width="405" height="102">
	<title>westcraft-logo</title>
	<defs>
		<clipPath clipPathUnits="userSpaceOnUse" id="cp1">
			<path d="m168.45-80.8h12.15l22.23-62.51 22.23 62.51h12.16l22.72-85.97h-13.26l-16.59 67.06-21.85-67.06h-10.81l-21.86 66.69-16.58-66.69h-13.26z"/>
		</clipPath>
	</defs>
	<style>
		.s0 { fill: #474c65 } 
	</style>
	<g id="g1">
		<path id="path7" class="s0" d="m1.8 3.8l12.1 53h10.7l7.7-33.7h0.4l7.8 33.7h10.6l12.1-53h-10.6l-6.8 39.3-8.4-39.3h-9.8l-8.4 39.3-6.8-39.3zm71.6 53h28.4v-9.1h-18.5v-14h16.3v-9.1h-16.3v-11.7h18.5v-9.1h-28.4zm56.2 0.8c11 0 17.3-7 17.3-16.6 0-7.1-4.8-11.1-11.5-13.7l-7.7-3.2c-3.1-1.2-5.8-2.8-5.8-6.3 0-3.6 2.7-5.7 6.8-5.7 4.2 0 7.6 2.1 7.6 6.1v1h9.8v-0.7c0-10-6.5-15.5-16.7-15.5-12.1 0-17.3 6.5-17.3 14.8 0 9 5.9 13 11.7 15.1l6.3 2.3c5.1 1.8 6.9 4.3 6.9 6.9 0 4.2-2.6 6.4-6.8 6.4-4.6 0-7.5-2.1-7.5-6.1v-1.4h-9.9v1.1c0 9.9 6.2 15.5 16.8 15.5zm36.6-0.8h9.9v-43.9h12.8v-9.1h-35.6v9.1h12.9zm47.1 0.7c11.3 0 17.4-4.9 17.4-16.8v-3.5h-9.8v3.8c0 5.2-2.8 7.4-7.6 7.4-4.7 0-7.6-2.2-7.6-7.4v-21.5c0-5.2 2.9-7.4 7.6-7.4 4.8 0 7.6 2.2 7.6 7.4v4h9.8v-3.7c0-11.9-6.1-16.8-17.4-16.8-11.3 0-17.4 5.3-17.4 16.8v20.9c0 11.5 6.1 16.8 17.4 16.8zm27.6-0.7h9.9v-15.9h7.3c0.7 0 1.3 0 2-0.1l5.8 16h10.6l-7.9-18.1c4.6-2.5 7-7.2 7-14.7v-3.4c0-11.9-6.1-16.9-17.5-16.9h-17.2zm9.9-24.9v-19h7.4c4.7 0 7.5 2.3 7.5 7.4v4.1c0 5.2-2.8 7.5-7.5 7.5zm32.4 24.9h10.6l2.3-10.2h13.5l2.4 10.2h10.6l-14.4-53h-10.6zm14.8-18.5l4.6-20.3h0.5l4.6 20.3zm34.6 18.5h9.9v-21.6h16.3v-9.1h-16.3v-13.2h18.5v-9.1h-28.4zm48.4 0h9.8v-43.9h12.9v-9.1h-35.6v9.1h12.9z"/>
		<path id="path8" class="s0" d="m107.5 77v18.4c0 2 1.6 3.7 3.6 3.7h16.6c2 0 3.6-1.7 3.6-3.7v-3.7c0-1.8-1.2-3.3-3-3.6-0.4-0.1-0.6-0.4-0.6-0.7v-10.4c0-2-1.7-3.7-3.7-3.7h-12.9c-2 0-3.6 1.7-3.6 3.7zm9.1 18.7v-5.1c0-0.4 0.4-0.7 0.8-0.7h7.7c0.4 0 0.7 0.3 0.7 0.7v5.1c0 0.4-0.3 0.8-0.7 0.8h-7.7c-0.4 0-0.8-0.4-0.8-0.8zm0-8.4v-4c0-0.4 0.4-0.8 0.8-0.8h4c0.4 0 0.8 0.4 0.8 0.8v4c0 0.4-0.4 0.7-0.8 0.7h-4c-0.4 0-0.8-0.3-0.8-0.7zm38-10.3v18.4c0 2 1.6 3.7 3.7 3.7h16.5c2.1 0 3.7-1.7 3.7-3.7v-18.4c0-2-1.6-3.7-3.7-3.7h-1.1c-0.4 0-0.7 0.4-0.7 0.8v21.6c0 0.4-0.3 0.8-0.7 0.8h-7.8c-0.4 0-0.7-0.4-0.7-0.8v-21.6c0-0.4-0.3-0.8-0.7-0.8h-4.8c-2.1 0-3.7 1.7-3.7 3.7zm47.2 0v18.4c0 2 1.6 3.7 3.6 3.7h4.8c0.4 0 0.8-0.4 0.8-0.8v-24.2c0-0.4-0.4-0.8-0.8-0.8h-4.8c-2 0-3.6 1.7-3.6 3.7zm32.4 0v18.4c0 2 1.7 3.7 3.7 3.7h16.5c0.4 0 0.8-0.4 0.8-0.8v-1.1c0-0.4-0.4-0.7-0.8-0.7h-10.2c-0.4 0-0.8-0.4-0.8-0.8v-21.6c0-0.4-0.3-0.8-0.7-0.8h-4.8c-2 0-3.7 1.7-3.7 3.7zm40.2 0v4.8c0 0.4 0.4 0.7 0.8 0.7h7.1c0.4 0 0.8 0.4 0.8 0.8v15c0 0.4 0.3 0.8 0.7 0.8h4c0.4 0 0.8-0.4 0.8-0.8v-15c0-0.4 0.3-0.8 0.7-0.8h7.2c0.4 0 0.7-0.3 0.7-0.7v-4.8c0-2-1.6-3.7-3.7-3.7h-15.4c-2.1 0-3.7 1.7-3.7 3.7z"/>
		<g id="Clip-Path: Clip-Path: path9" clip-path="url(#cp1)">
			<g id="Clip-Path: path9">
			</g>
		</g>
	</g>
</svg>