<svg version="1.2" xmlns="http://www.w3.org/2000/svg" viewBox="0 0 700 250" width="700" height="250">
	<title>westcraft-logo</title>
	<defs>
		<linearGradient id="g1" x2="1" gradientUnits="userSpaceOnUse" gradientTransform="matrix(0,139.038,-184.63,0,79.911,90.235)">
			<stop offset="0" stop-color="#b1d54e"/>
			<stop offset="1" stop-color="#1f176f"/>
		</linearGradient>
		<clipPath clipPathUnits="userSpaceOnUse" id="cp1">
			<path d="m315.45 133.2h12.15l22.23-62.51 22.23 62.51h12.16l22.72-85.97h-13.26l-16.59 67.06-21.85-67.06h-10.81l-21.86 66.69-16.58-66.69h-13.26z"/>
		</clipPath>
	</defs>
	<style>
		.s0 { fill: url(#g1) } 
		.s1 { fill: #474c65 } 
	</style>
	<path id="path9" class="s0" d="m70.4 198.2h12.2l22.2-62.5 22.3 62.5h12.1l22.7-86h-13.2l-16.6 67.1-21.9-67.1h-10.8l-21.8 66.7-16.6-66.7h-13.3z"/>
	<g id="g1">
		<path id="path2" class="s1" d="m20.5 66.9h239v-3.4h-239z"/>
		<path id="path3" class="s1" d="m192.6 240.6h3.5v-239h-3.5z"/>
		<path id="path4" class="s1" d="m78.2 243.5c0.2-0.7 0.9-1.2 1.7-0.9 30.7 8.1 63.7-0.7 86.1-23.1 34.9-34.9 34.9-91.4 0.1-126.2-34.8-34.8-91.4-34.8-126.2 0-22.4 22.4-31.3 55.5-23.1 86.1 0.3 0.8-0.2 1.5-1 1.7-0.7 0.2-1.5-0.2-1.6-1-8.5-31.6 0.6-65.7 23.7-88.8 35.9-35.9 94.3-35.9 130.2 0 35.8 35.9 35.8 94.2 0 130.1-23.2 23.2-57.2 32.3-88.9 23.8-0.8-0.1-1.2-0.9-1-1.7z"/>
		<path id="path5" class="s1" d="m203.2 66.9c0 5.1-4.1 9.2-9.1 9.2-5.1 0-9.2-4.1-9.2-9.2 0-5 4.1-9.1 9.2-9.1 5 0 9.1 4.1 9.1 9.1z"/>
		<path id="path6" class="s1" d="m17.4 205.7v34.9h34.8z"/>
		<path id="path7" class="s1" d="m246.8 98.9l13.5 58.9h12l8.6-37.5h0.4l8.7 37.5h11.8l13.6-58.9h-11.9l-7.6 43.6-9.3-43.6h-11l-9.4 43.6-7.6-43.6zm80 58.9h31.7v-10.1h-20.7v-15.6h18.2v-10.1h-18.2v-13h20.7v-10.1h-31.7zm62.7 0.9c12.3 0 19.4-7.8 19.4-18.5 0-7.8-5.4-12.3-12.9-15.2l-8.6-3.5c-3.4-1.4-6.5-3.1-6.5-7 0-4 3.1-6.4 7.6-6.4 4.7 0 8.5 2.4 8.5 6.8v1.1h11v-0.8c0-11.1-7.3-17.2-18.7-17.2-13.5 0-19.3 7.2-19.3 16.5 0 10 6.6 14.4 13.1 16.7l7 2.6c5.7 2 7.7 4.8 7.7 7.7 0 4.6-2.9 7.1-7.6 7.1-5.1 0-8.4-2.4-8.4-6.8v-1.6h-11v1.3c0 11 6.9 17.2 18.7 17.2zm40.9-0.9h11.1v-48.8h14.3v-10.1h-39.8v10.1h14.4zm52.6 0.8c12.6 0 19.4-5.4 19.4-18.7v-3.8h-10.9v4.2c0 5.7-3.1 8.2-8.5 8.2-5.2 0-8.5-2.5-8.5-8.2v-23.9c0-5.8 3.3-8.2 8.5-8.2 5.4 0 8.5 2.4 8.5 8.2v4.4h10.9v-4.1c0-13.2-6.8-18.6-19.4-18.6-12.6 0-19.4 5.9-19.4 18.6v23.2c0 12.8 6.8 18.7 19.4 18.7zm30.8-0.8h11.1v-17.6h8.1c0.8 0 1.5 0 2.3-0.1l6.4 17.7h11.9l-8.8-20.1c5.1-2.8 7.8-8 7.8-16.3v-3.8c0-13.2-6.8-18.8-19.6-18.8h-19.2zm11.1-27.6v-21.1h8.2c5.3 0 8.4 2.5 8.4 8.2v4.6c0 5.7-3.1 8.3-8.4 8.3zm36.2 27.6h11.9l2.5-11.3h15.1l2.7 11.3h11.8l-16.1-58.8h-11.8zm16.5-20.6l5.2-22.5h0.5l5.2 22.5zm38.6 20.6h11v-24h18.2v-10.1h-18.2v-14.7h20.7v-10.1h-31.7zm54 0h11v-48.8h14.4v-10.1h-39.8v10.1h14.4z"/>
		<path id="path8" class="s1" d="m364.8 180.2v20.4c0 2.3 1.8 4.1 4 4.1h18.6c2.2 0 4-1.8 4-4.1v-4.1c0-2-1.3-3.6-3.3-4-0.5-0.1-0.7-0.4-0.7-0.7v-11.6c0-2.2-1.9-4.1-4.1-4.1h-14.5c-2.2 0-4 1.9-4 4.1zm10.2 20.8v-5.7c0-0.4 0.4-0.8 0.9-0.8h8.6c0.4 0 0.8 0.4 0.8 0.8v5.7c0 0.4-0.4 0.9-0.8 0.9h-8.6c-0.5 0-0.9-0.5-0.9-0.9zm0-9.4v-4.4c0-0.4 0.4-0.9 0.9-0.9h4.4c0.5 0 0.9 0.5 0.9 0.9v4.4c0 0.5-0.4 0.8-0.9 0.8h-4.4c-0.5 0-0.9-0.3-0.9-0.8zm42.4-11.4v20.4c0 2.3 1.8 4.1 4.2 4.1h18.4c2.3 0 4.1-1.8 4.1-4.1v-20.4c0-2.2-1.8-4.1-4.1-4.1h-1.3c-0.4 0-0.7 0.4-0.7 0.9v24c0 0.4-0.4 0.9-0.8 0.9h-8.7c-0.5 0-0.8-0.5-0.8-0.9v-24c0-0.5-0.3-0.9-0.8-0.9h-5.3c-2.4 0-4.2 1.9-4.2 4.1zm52.7 0v20.4c0 2.3 1.8 4.1 4 4.1h5.4c0.5 0 0.9-0.4 0.9-0.8v-26.9c0-0.5-0.4-0.9-0.9-0.9h-5.4c-2.2 0-4 1.9-4 4.1zm36.2 0v20.4c0 2.3 1.9 4.1 4.1 4.1h18.5c0.4 0 0.9-0.4 0.9-0.8v-1.3c0-0.4-0.5-0.7-0.9-0.7h-11.4c-0.5 0-0.9-0.5-0.9-0.9v-24c0-0.5-0.4-0.9-0.8-0.9h-5.4c-2.2 0-4.1 1.9-4.1 4.1zm44.9 0v5.3c0 0.5 0.4 0.8 0.9 0.8h7.9c0.5 0 0.9 0.5 0.9 0.9v16.7c0 0.4 0.3 0.8 0.8 0.8h4.5c0.4 0 0.8-0.4 0.8-0.8v-16.7c0-0.4 0.4-0.9 0.8-0.9h8.1c0.4 0 0.8-0.3 0.8-0.8v-5.3c0-2.2-1.8-4.1-4.2-4.1h-17.2c-2.3 0-4.1 1.9-4.1 4.1z"/>
		<g id="Clip-Path: Clip-Path: path9" clip-path="url(#cp1)">
			<g id="Clip-Path: path9">
			</g>
		</g>
	</g>
</svg>