<svg version="1.2" xmlns="http://www.w3.org/2000/svg" viewBox="0 0 252 250" width="252" height="250">
	<title>westcraft-logo</title>
	<defs>
		<clipPath clipPathUnits="userSpaceOnUse" id="cp1">
			<path d="m61.45 200.2h12.15l22.23-62.51 22.23 62.51h12.16l22.72-85.97h-13.26l-16.59 67.06-21.85-67.06h-10.81l-21.86 66.69-16.58-66.69h-13.26z"/>
		</clipPath>
	</defs>
	<style>
		.s0 { fill: #474c65 } 
	</style>
	<g id="g1">
		<path id="path2" class="s0" d="m11.5 68.9h239v-3.4h-239z"/>
		<path id="path3" class="s0" d="m183.6 242.6h3.5v-239h-3.5z"/>
		<path id="path4" class="s0" d="m69.2 245.5c0.2-0.7 0.9-1.2 1.7-0.9 30.7 8.1 63.7-0.7 86.1-23.1 34.9-34.9 34.9-91.4 0.1-126.2-34.8-34.8-91.4-34.8-126.2 0-22.4 22.4-31.3 55.5-23.1 86.1 0.3 0.8-0.2 1.5-1 1.7-0.7 0.2-1.5-0.2-1.6-1-8.5-31.6 0.6-65.7 23.7-88.8 35.9-35.9 94.3-35.9 130.2 0 35.8 35.9 35.8 94.2 0 130.1-23.2 23.2-57.2 32.3-88.9 23.8-0.8-0.1-1.2-0.9-1-1.7z"/>
		<path id="path5" class="s0" d="m194.2 68.9c0 5.1-4.1 9.2-9.1 9.2-5.1 0-9.2-4.1-9.2-9.2 0-5 4.1-9.1 9.2-9.1 5 0 9.1 4.1 9.1 9.1z"/>
		<path id="path6" class="s0" d="m8.4 207.7v34.9h34.8z"/>
		<g id="Clip-Path: Clip-Path: path9" clip-path="url(#cp1)">
			<g id="Clip-Path: path9">
			</g>
		</g>
	</g>
</svg>